<svg width="160" height="64" viewBox="0 0 160 64" fill="none" xmlns="http://www.w3.org/2000/svg">
<path fill-rule="evenodd" clip-rule="evenodd" d="M44.6186 19.7681L31.6576 45.1052H19.4837L24.9079 34.6044H24.6645C20.1897 40.4133 13.5131 44.2374 4 45.1052V34.7498C4 34.7498 10.0858 34.3903 13.6634 30.6289H4V19.7683H14.8606V28.701L15.1044 28.7L19.5424 19.7683H27.756V28.6443L27.9998 28.6439L32.6043 19.7681H44.6186Z" fill="#080808"/>
<path d="M115.295 42.3086H118.793V22.2314H115.295V42.3086Z" fill="#080808"/>
<path fill-rule="evenodd" clip-rule="evenodd" d="M96.0124 42.1035C96.7727 42.4196 97.5457 42.5775 98.3316 42.5775C99.6299 42.5775 100.791 42.2616 101.816 41.6295C102.841 40.9974 103.636 40.1261 104.2 39.0158C104.763 37.8968 105.045 36.6284 105.045 35.2105C105.045 33.7925 104.755 32.5241 104.174 31.4051C103.593 30.2862 102.786 29.4192 101.752 28.8042C100.719 28.1807 99.5445 27.8732 98.229 27.8817C97.392 27.8817 96.589 28.044 95.8203 28.3686C95.0514 28.6932 94.4109 29.1544 93.8984 29.7523C93.8588 29.7979 93.8204 29.8439 93.7831 29.8903V22.2443H90.2725V42.3086H93.7575L93.7504 40.4342C93.8407 40.5447 93.9369 40.6526 94.0394 40.7582C94.5946 41.3306 95.2523 41.779 96.0124 42.1035ZM99.5999 38.862C99.0277 39.2121 98.3742 39.3874 97.6397 39.3874C96.9136 39.3874 96.2473 39.2079 95.6409 38.8492C95.0344 38.4818 94.5518 37.9822 94.1931 37.3501C93.8429 36.7181 93.6678 36.0006 93.6678 35.1976C93.6592 34.3947 93.8301 33.6772 94.1803 33.0451C94.539 32.4045 95.0216 31.9091 95.6281 31.5589C96.2345 31.2002 96.905 31.0251 97.6397 31.0336C98.3742 31.0251 99.0277 31.1959 99.5999 31.5461C100.181 31.8877 100.625 32.3789 100.932 33.0195C101.248 33.6516 101.406 34.3777 101.406 35.1976C101.406 36.0176 101.248 36.7437 100.932 37.3758C100.625 38.0078 100.181 38.5032 99.5999 38.862Z" fill="#080808"/>
<path d="M49.686 23.4486H53.6835L57.2594 36.5079L61.0635 23.4486H64.3947L68.5204 36.2459L71.954 23.4486H75.6183L70.2115 42.3085H66.7649L62.5699 29.8066L58.7188 42.3085H55.2337L49.686 23.4486Z" fill="#080808"/>
<path fill-rule="evenodd" clip-rule="evenodd" d="M81.5213 42.6417C80.1289 42.6501 78.8734 42.3426 77.7544 41.7191C76.6441 41.0871 75.7685 40.2115 75.1279 39.0926C74.4958 37.9736 74.1797 36.6967 74.1797 35.2617C74.1797 33.8695 74.5044 32.6095 75.1535 31.482C75.8026 30.3545 76.6825 29.4747 77.7928 28.8427C78.9032 28.2106 80.1417 27.8945 81.5085 27.8945C83.0459 27.8945 84.3913 28.2362 85.5443 28.9195C86.706 29.6029 87.573 30.5723 88.1452 31.828C88.7261 33.075 88.9354 34.5058 88.7731 36.1201H77.7983C77.8289 36.7632 77.9894 37.3484 78.2797 37.8754C78.6043 38.4562 79.057 38.909 79.6377 39.2335C80.2186 39.5581 80.8678 39.7203 81.5853 39.7203C82.132 39.7119 82.6402 39.6179 83.11 39.4386C83.5798 39.2507 83.9769 38.9986 84.3016 38.6827C84.6346 38.3666 84.8695 38.0078 85.0062 37.6064H88.6706C88.4485 38.5886 88.0044 39.4642 87.3381 40.2329C86.6718 40.9931 85.8347 41.5867 84.8269 42.0139C83.8189 42.4409 82.717 42.6501 81.5213 42.6417ZM78.2925 32.5967C78.0878 32.9537 77.946 33.338 77.8671 33.7498H85.142C85.0892 33.2296 84.9286 32.7555 84.6602 32.3276C84.3528 31.8237 83.9343 31.435 83.4047 31.1617C82.8751 30.8798 82.2772 30.7389 81.6109 30.7389C80.902 30.7389 80.2572 30.9012 79.6763 31.2258C79.0955 31.5504 78.6341 32.0073 78.2925 32.5967Z" fill="#080808"/>
<path d="M107.621 28.1891C107.621 27.0445 107.881 26.0281 108.402 25.1398C108.923 24.2429 109.654 23.5467 110.593 23.0513C111.541 22.5474 112.647 22.2869 113.912 22.2698V25.3832C113.322 25.3917 112.818 25.5156 112.4 25.7548C111.99 25.9854 111.674 26.3228 111.452 26.7669C111.247 27.1758 111.137 27.6499 111.121 28.1891H113.835V31.1488H111.118V42.3085H107.621V31.1488H105.366V28.1891H107.621Z" fill="#080808"/>
<path fill-rule="evenodd" clip-rule="evenodd" d="M127.685 42.6161C126.258 42.6161 124.981 42.3042 123.854 41.6807C122.735 41.0486 121.855 40.1773 121.214 39.067C120.582 37.948 120.266 36.6796 120.266 35.2617C120.266 33.8353 120.582 32.5625 121.214 31.4436C121.855 30.3161 122.735 29.4406 123.854 28.817C124.981 28.1935 126.258 27.8817 127.685 27.8817C129.12 27.8817 130.401 28.1935 131.528 28.817C132.664 29.4406 133.548 30.3118 134.18 31.4308C134.812 32.5497 135.133 33.8267 135.141 35.2617C135.133 36.6796 134.812 37.948 134.18 39.067C133.557 40.1773 132.677 41.0486 131.541 41.6807C130.405 42.3042 129.12 42.6161 127.685 42.6161ZM127.685 39.4001C128.436 39.4001 129.103 39.2293 129.683 38.8876C130.264 38.5374 130.713 38.0504 131.029 37.427C131.345 36.7949 131.503 36.0732 131.503 35.2617C131.503 34.4417 131.345 33.7156 131.029 33.0836C130.713 32.4515 130.264 31.9646 129.683 31.6229C129.103 31.2727 128.436 31.0976 127.685 31.0976C126.941 31.0976 126.28 31.2727 125.699 31.6229C125.126 31.9646 124.682 32.4515 124.366 33.0836C124.05 33.7156 123.896 34.4417 123.905 35.2617C123.905 36.0732 124.063 36.7949 124.379 37.427C124.704 38.0504 125.148 38.5374 125.712 38.8876C126.284 39.2293 126.941 39.4001 127.685 39.4001Z" fill="#080808"/>
<path d="M138.921 28.1892H135.026L139.242 42.3085H142.65L145.422 33.2905L148.416 42.3085H151.772L156 28.1892H152.477L150.079 36.9776L147.429 28.1892H144.021L141.383 37.1712L138.921 28.1892Z" fill="#080808"/>
</svg>
