<svg width="160" height="64" viewBox="0 0 160 64" fill="none" xmlns="http://www.w3.org/2000/svg">
<path d="M56.7028 42.34H61.4555V34.1925H63.5219L68.5698 42.34H73.6472L68.068 33.366C70.5477 32.628 72.4074 30.9453 72.4074 27.7572V27.6391C72.4074 23.2702 69.2488 21.2333 64.2599 21.2333H56.7028V42.34ZM61.4555 30.9453V24.8938H64.1418C66.4444 24.8938 67.7433 25.6318 67.7433 27.7867V27.9048C67.7433 29.9417 66.533 30.9453 64.1418 30.9453H61.4555Z" fill="black"/>
<path d="M81.8049 42.6647C86.0262 42.6647 88.683 40.805 89.1848 37.4692H85.1406C84.8749 38.7681 83.9008 39.6242 81.923 39.6242C79.5909 39.6242 78.2035 38.1482 78.0854 35.58H89.2144V34.3992C89.2144 28.8789 85.672 26.5469 81.6868 26.5469C77.1998 26.5469 73.7459 29.7055 73.7459 34.5763V34.8124C73.7459 39.7423 77.1407 42.6647 81.8049 42.6647ZM78.1444 32.9527C78.4691 30.7682 79.768 29.4989 81.6868 29.4989C83.7237 29.4989 84.9045 30.6206 85.0521 32.9527H78.1444Z" fill="black"/>
<path d="M91.2487 42.34H95.4996V19.9049H91.2487V42.34Z" fill="black"/>
<path d="M103.655 42.6647C106.194 42.6647 107.758 41.4839 108.555 39.9194V42.34H112.806V26.9011H108.555V35.9637C108.555 38.2368 107.138 39.3585 105.338 39.3585C103.508 39.3585 102.651 38.3548 102.651 36.2589V26.9011H98.4006V36.8493C98.4006 40.8935 100.644 42.6647 103.655 42.6647Z" fill="black"/>
<path d="M115.708 42.34H119.989V33.2184C119.989 31.1225 121.317 30.0597 122.97 30.0597C124.476 30.0597 125.391 30.9453 125.391 32.9232V42.34H129.642V33.2184C129.642 31.1225 130.97 30.0597 132.623 30.0597C134.158 30.0597 135.044 30.9453 135.044 32.9232V42.34H139.295V32.4509C139.295 28.3476 137.081 26.5469 134.217 26.5469C132.269 26.5469 130.262 27.3734 129.022 29.2332C128.284 27.403 126.749 26.5469 124.712 26.5469C122.409 26.5469 120.756 27.8162 119.989 29.2627V26.9011H115.708V42.34Z" fill="black"/>
<path d="M149.179 42.6647C153.401 42.6647 156.058 40.805 156.559 37.4692H152.515C152.249 38.7681 151.275 39.6242 149.297 39.6242C146.965 39.6242 145.578 38.1482 145.46 35.58H156.589V34.3992C156.589 28.8789 153.046 26.5469 149.061 26.5469C144.574 26.5469 141.12 29.7055 141.12 34.5763V34.8124C141.12 39.7423 144.515 42.6647 149.179 42.6647ZM145.519 32.9527C145.844 30.7682 147.143 29.4989 149.061 29.4989C151.098 29.4989 152.279 30.6206 152.427 32.9527H145.519Z" fill="black"/>
<path fill-rule="evenodd" clip-rule="evenodd" d="M40.3463 22.496L40.0593 21.9835C39.6892 21.3637 39.1671 20.8486 38.5424 20.487L24.7869 12.5535C24.164 12.1922 23.457 12.0013 22.7369 12H22.1424C21.4223 12.0013 20.7153 12.1922 20.0924 12.5535L6.33699 20.5075C5.71579 20.8667 5.19977 21.3828 4.8405 22.004L4.5535 22.5165C4.19218 23.1393 4.00128 23.8464 4 24.5664V40.4539C4.00128 41.174 4.19218 41.881 4.5535 42.5039L4.8405 43.0164C5.20906 43.6304 5.72299 44.1443 6.33699 44.5129L20.1129 52.4463C20.7327 52.8151 21.4418 53.0066 22.1629 52.9998H22.7369C23.457 52.9985 24.164 52.8076 24.7869 52.4463L38.5424 44.4924C39.1697 44.1412 39.6877 43.6233 40.0388 42.9959L40.3463 42.4834C40.7033 41.8587 40.8939 41.1528 40.8998 40.4334V24.5459C40.8986 23.8259 40.7077 23.1188 40.3463 22.496ZM22.1424 16.0999H22.7369L34.7499 23.0289L22.4499 30.1218L10.15 23.0289L22.1424 16.0999ZM24.4999 47.875L36.4923 40.946L36.7998 40.4335V26.5756L24.4999 33.689V47.875Z" fill="black"/>
<path d="M22.1424 16.0999H22.7369L34.7499 23.0288L22.4499 30.1218L10.15 23.0288L22.1424 16.0999Z" fill="white"/>
<path d="M36.4924 40.946L24.5 47.875V33.689L36.7999 26.5756V40.4335L36.4924 40.946Z" fill="white"/>
</svg>
