<svg width="101" height="42" viewBox="0 0 101 42" fill="none" xmlns="http://www.w3.org/2000/svg">
<g clip-path="url(#clip0_1857_408)">
<path fill-rule="evenodd" clip-rule="evenodd" d="M59.0817 27.3725H61.753V13.2738H59.0817V27.3725ZM40.3759 27.3768H37.3892V14.1128H42.1383C45.2734 14.1128 47.2583 15.3928 47.2583 18.1384V18.2126C47.2583 20.2161 46.0896 21.2735 44.5313 21.7373L48.0375 27.3768H44.8467L41.6745 22.2567H40.3759V27.3768ZM40.3759 16.4131V20.2161H42.0641C43.5667 20.2161 44.3273 19.5853 44.3273 18.3053V18.2311C44.3273 16.8769 43.511 16.4131 42.0641 16.4131H40.3759ZM57.7935 24.3004C57.4782 26.3967 55.8086 27.5654 53.1558 27.5654C50.2247 27.5654 48.0914 25.7288 48.0914 22.6308V22.4824C48.0914 19.4215 50.2618 17.4365 53.0816 17.4365C55.586 17.4365 57.8121 18.9021 57.8121 22.3711V23.1131H50.8184C50.8926 24.7271 51.7645 25.6546 53.23 25.6546C54.4729 25.6546 55.0851 25.1167 55.2521 24.3004H57.7935ZM53.0816 19.2916C51.8758 19.2916 51.0595 20.0893 50.8555 21.4621H55.1964C55.1037 19.9966 54.3616 19.2916 53.0816 19.2916ZM69.9669 25.86C69.4659 26.8432 68.4827 27.5852 66.8873 27.5852C64.9951 27.5852 63.5852 26.4721 63.5852 23.9307V17.679H66.2566V23.5596C66.2566 24.8768 66.7945 25.5075 67.9447 25.5075C69.0763 25.5075 69.9669 24.8025 69.9669 23.3741V17.679H72.6383V27.3811H69.9669V25.86ZM74.455 27.3613H77.1449V21.6291C77.1449 20.3119 77.9797 19.6441 79.0186 19.6441C79.9647 19.6441 80.5397 20.2006 80.5397 21.4436V27.3613H83.2111V21.6291C83.2111 20.3119 84.0459 19.6441 85.0847 19.6441C86.0494 19.6441 86.6059 20.2006 86.6059 21.4436V27.3613H89.2773V21.1467C89.2773 18.5682 87.8859 17.4365 86.0865 17.4365C84.8621 17.4365 83.6007 17.956 82.8215 19.1247C82.3577 17.9745 81.3931 17.4365 80.1131 17.4365C78.6661 17.4365 77.6272 18.2342 77.1449 19.1432V17.6592H74.455V27.3613ZM100.134 24.3004C99.8186 26.3967 98.149 27.5654 95.4962 27.5654C92.5652 27.5654 90.4318 25.7288 90.4318 22.6308V22.4824C90.4318 19.4215 92.6023 17.4365 95.422 17.4365C97.9264 17.4365 100.153 18.9021 100.153 22.3711V23.1131H93.1588C93.233 24.7271 94.1049 25.6546 95.5704 25.6546C96.8134 25.6546 97.4255 25.1167 97.5925 24.3004H100.134ZM95.422 19.2916C94.2162 19.2916 93.4 20.0893 93.1959 21.4621H97.5368C97.4441 19.9966 96.702 19.2916 95.422 19.2916Z" fill="#161616"/>
<g opacity="0.5" filter="url(#filter0_f_1857_408)">
<path fill-rule="evenodd" clip-rule="evenodd" d="M26.7474 17.1492L26.9165 17.4512C27.2966 18.1127 27.4973 18.8622 27.4987 19.6254V19.629V28.5707L27.4986 28.5794C27.4923 29.3391 27.2911 30.0845 26.9141 30.7441L26.9032 30.7633L26.7323 31.048C26.351 31.7158 25.7962 32.2683 25.1264 32.6466L17.4051 37.1113C17.4047 37.1116 17.4043 37.1118 17.4039 37.1121C16.7388 37.4976 15.9839 37.7013 15.2151 37.7027L15.2113 37.7027H14.8967C14.1208 37.7079 13.358 37.5025 12.6897 37.1084L4.93842 32.6445L4.92231 32.6348C4.28535 32.2524 3.75213 31.7193 3.36982 31.0823L3.3537 31.0555L3.1835 30.7515C2.8034 30.09 2.6027 29.3405 2.60132 28.5774V28.5737V19.6369C2.6027 18.8737 2.8034 18.1242 3.1835 17.4626L3.34547 17.1735L3.35267 17.161C3.7365 16.4974 4.28777 15.9461 4.95142 15.5623L12.6834 11.0913C12.6839 11.091 12.6843 11.0907 12.6849 11.0905C13.3499 10.705 14.1047 10.5014 14.8734 10.5L14.8771 10.5L15.2151 10.5C15.9834 10.5014 16.7378 10.7048 17.4025 11.0898C17.4034 11.0903 17.4043 11.0908 17.4051 11.0913L25.1379 15.5512C25.7946 15.9314 26.3434 16.4729 26.7326 17.1244L26.7474 17.1492ZM16.364 12.886L24.0983 17.3468C24.2254 17.4204 24.345 17.5052 24.4557 17.6001C24.6102 17.7325 24.7475 17.8845 24.8638 18.0523C24.8944 18.0966 24.9236 18.1419 24.9513 18.1882L25.1127 18.4764C25.1415 18.5261 25.1684 18.5768 25.1933 18.6282C25.2815 18.8103 25.3452 19.0027 25.383 19.2007C25.4099 19.3413 25.4236 19.4847 25.4239 19.629V28.5621C25.4205 28.9667 25.3134 29.3636 25.1127 29.7148L24.9398 30.0029C24.7423 30.3557 24.4511 30.6469 24.0983 30.8444L16.364 35.3167C16.0605 35.4928 15.7213 35.5969 15.3727 35.622C15.3191 35.6258 15.2653 35.6278 15.2113 35.6279H14.8887C14.6284 35.6304 14.371 35.5869 14.1278 35.5006C13.9921 35.4525 13.8608 35.391 13.736 35.3167L5.99013 30.8559C5.64488 30.6487 5.35593 30.3597 5.14866 30.0145L4.98732 29.7263C4.78413 29.3761 4.67679 28.9785 4.6761 28.5737V19.6406C4.67638 19.4926 4.69083 19.3458 4.71905 19.2018C4.76801 18.9515 4.85833 18.7102 4.98732 18.4879L5.14866 18.1998C5.17826 18.1487 5.20966 18.0988 5.24293 18.0503C5.43685 17.7675 5.69198 17.5307 5.99013 17.3583L13.7244 12.886C14.0746 12.6829 14.4722 12.5755 14.8771 12.5748H15.2113C15.6163 12.5755 16.0138 12.6829 16.364 12.886ZM21.9659 18.7761L15.2113 14.8801H14.8771L8.13407 18.7761L15.05 22.7642L21.9659 18.7761ZM15.05 20.3692L17.8131 18.7759L15.045 17.1793L12.2843 18.7744L15.05 20.3692ZM16.2026 24.7699V32.7463L22.9456 28.8503L23.1185 28.5621V20.7702L16.2026 24.7699ZM21.0438 24.3669L18.2774 25.9667V29.1513L21.0438 27.553V24.3669Z" fill="url(#paint0_linear_1857_408)"/>
</g>
<path fill-rule="evenodd" clip-rule="evenodd" d="M26.0098 14.8258L25.8319 14.508C25.6023 14.1237 25.2785 13.8043 24.8912 13.58L16.3616 8.66056C15.9753 8.43656 15.5369 8.31818 15.0904 8.31734H14.7218C14.2753 8.31818 13.8368 8.43656 13.4506 8.66056L4.92096 13.5928C4.53579 13.8156 4.21576 14.1355 3.99298 14.5207L3.81504 14.8385C3.59095 15.2247 3.47258 15.6631 3.47182 16.1097V25.9613C3.47258 26.4079 3.59095 26.8463 3.81504 27.2325L3.99298 27.5503C4.22156 27.9311 4.54022 28.2497 4.92096 28.4782L13.4633 33.3977C13.8475 33.6264 14.2873 33.7452 14.7345 33.7409H15.0904C15.5369 33.7401 15.9753 33.6218 16.3616 33.3977L24.8912 28.4656C25.2802 28.2478 25.6014 27.9266 25.8192 27.5376L26.0098 27.2198C26.2312 26.8325 26.3493 26.3947 26.3531 25.9486V16.097C26.3523 15.6505 26.2339 15.212 26.0098 14.8258ZM14.7218 10.8597H15.0904L22.5395 15.1563L14.9124 19.5545L7.28536 15.1563L14.7218 10.8597ZM16.1836 30.563L23.62 26.2664L23.8106 25.9486V17.3554L16.1836 21.7664V30.563Z" fill="#161616"/>
<path fill-rule="evenodd" clip-rule="evenodd" d="M27.8134 13.3329L27.9999 13.666C28.4191 14.3955 28.6404 15.222 28.642 16.0637V16.0677V25.9289L28.6419 25.9384C28.635 26.7762 28.413 27.5983 27.9973 28.3258L27.9852 28.3469L27.7968 28.6609C27.3763 29.3974 26.7644 30.0066 26.0258 30.4239L17.5105 35.3477C17.51 35.348 17.5096 35.3482 17.5092 35.3485C16.7757 35.7737 15.9431 35.9984 15.0953 35.9998L15.0912 35.9999H14.7442C13.8885 36.0056 13.0473 35.7791 12.3103 35.3445L3.76191 30.4215L3.74414 30.4108C3.04169 29.9891 2.45364 29.4012 2.03202 28.6987L2.01424 28.6691L1.82654 28.3339C1.40736 27.6044 1.18602 26.7778 1.18449 25.9362V25.9321V16.0764C1.18602 15.2347 1.40736 14.4082 1.82654 13.6786L2.00517 13.3597L2.0131 13.3459C2.4364 12.614 3.04436 12.0061 3.77625 11.5828L12.3032 6.65212C12.3038 6.65181 12.3043 6.65149 12.3049 6.65117C13.0383 6.2261 13.8708 6.00151 14.7185 6.00001L14.7226 6L15.0953 6.00001C15.9426 6.00151 16.7745 6.22585 17.5077 6.65048C17.5087 6.65103 17.5096 6.65157 17.5105 6.65212L26.0385 11.5706C26.7627 11.9899 27.3679 12.587 27.7971 13.3055L27.8134 13.3329ZM16.3624 8.63134L24.892 13.5508C25.0322 13.632 25.164 13.7255 25.2861 13.8302C25.4564 13.9762 25.6078 14.1438 25.7361 14.3289C25.7699 14.3777 25.8021 14.4277 25.8327 14.4788L26.0106 14.7966C26.0424 14.8514 26.0721 14.9073 26.0996 14.964C26.1968 15.1648 26.2671 15.377 26.3087 15.5953C26.3384 15.7504 26.3535 15.9086 26.3539 16.0677V25.9194C26.3501 26.3655 26.232 26.8032 26.0106 27.1906L25.82 27.5084C25.6022 27.8974 25.281 28.2186 24.892 28.4363L16.3624 33.3686C16.0276 33.5627 15.6536 33.6775 15.2691 33.7052C15.21 33.7094 15.1507 33.7116 15.0912 33.7118H14.7353C14.4483 33.7144 14.1644 33.6665 13.8962 33.5714C13.7466 33.5183 13.6018 33.4505 13.4641 33.3686L4.92176 28.4491C4.54102 28.2205 4.22236 27.9018 3.99378 27.5211L3.81584 27.2033C3.59175 26.817 3.47338 26.3786 3.47262 25.9321V16.0805C3.47292 15.9173 3.48886 15.7553 3.51998 15.5965C3.57398 15.3206 3.67359 15.0544 3.81584 14.8093L3.99378 14.4915C4.02642 14.4352 4.06105 14.3802 4.09773 14.3267C4.3116 14.0148 4.59296 13.7537 4.92176 13.5635L13.4514 8.63134C13.8376 8.40733 14.2761 8.28896 14.7226 8.28812H15.0912C15.5377 8.28896 15.9761 8.40733 16.3624 8.63134ZM22.5403 15.1271L15.0912 10.8305H14.7226L7.28616 15.1271L14.9132 19.5253L22.5403 15.1271ZM14.9132 16.8841L17.9604 15.1269L14.9077 13.3661L11.8632 15.1252L14.9132 16.8841ZM16.1844 21.7372V30.5338L23.6208 26.2372L23.8114 25.9194V17.3262L16.1844 21.7372ZM21.5233 21.2927L18.4725 23.0571V26.5692L21.5233 24.8065V21.2927Z" fill="url(#paint1_linear_1857_408)"/>
<path d="M14.7158 10.8176H15.0845L22.5336 15.1142L14.9065 19.5125L7.27943 15.1142L14.7158 10.8176Z" fill="white"/>
<path d="M23.6243 26.2544L16.1879 30.551V21.7545L23.815 17.3434V25.9366L23.6243 26.2544Z" fill="white"/>
</g>
<defs>
<filter id="filter0_f_1857_408" x="-1.39868" y="6.5" width="32.8974" height="35.2028" filterUnits="userSpaceOnUse" color-interpolation-filters="sRGB">
<feFlood flood-opacity="0" result="BackgroundImageFix"/>
<feBlend mode="normal" in="SourceGraphic" in2="BackgroundImageFix" result="shape"/>
<feGaussianBlur stdDeviation="2" result="effect1_foregroundBlur_1857_408"/>
</filter>
<linearGradient id="paint0_linear_1857_408" x1="2.60132" y1="10.5" x2="27.8587" y2="13.0283" gradientUnits="userSpaceOnUse">
<stop stop-color="#FF7448"/>
<stop offset="0.5" stop-color="#FF4848"/>
<stop offset="1" stop-color="#6248FF"/>
</linearGradient>
<linearGradient id="paint1_linear_1857_408" x1="1.18449" y1="6" x2="29.039" y2="8.78822" gradientUnits="userSpaceOnUse">
<stop stop-color="#FF7448"/>
<stop offset="0.5" stop-color="#FF4848"/>
<stop offset="1" stop-color="#6248FF"/>
</linearGradient>
<clipPath id="clip0_1857_408">
<rect width="101" height="42" fill="white"/>
</clipPath>
</defs>
</svg>
