<svg width="70" height="36" viewBox="0 0 70 36" fill="none" xmlns="http://www.w3.org/2000/svg">
<path d="M67.2446 17.0815L67.2075 17.1187C67.4677 16.4125 67.988 16.1523 68.434 16.1523C69.0659 16.1523 69.6234 16.6355 69.6234 17.3417C69.6234 17.4904 69.6234 17.6762 69.5491 17.8992C68.2482 21.2444 65.4977 22.9541 62.8216 23.2143C61.5951 25.2957 59.588 26.8196 56.726 26.8196C52.6375 26.8196 50.8163 23.586 50.8163 20.055C50.8163 15.7063 53.5668 10.8744 58.1756 10.8744C59.1791 10.8744 60.034 11.0975 60.7402 11.3948C62.8216 12.1753 64.1597 14.8886 64.1597 17.7877C64.1597 18.7169 64.0853 19.6461 63.8623 20.5382C65.2376 20.055 66.5384 18.9399 67.2446 17.0815ZM59.4765 13.9222V13.8851C58.6588 13.8851 58.1756 14.9629 58.1756 16.2638C58.1756 18.1594 59.2163 19.9063 60.8517 20.5382C61.1119 19.7205 61.2234 18.7913 61.2234 17.7134C61.2234 15.632 60.5915 13.9222 59.4765 13.9222ZM56.7632 24.1063C57.8039 24.1063 58.8446 23.6603 59.6623 22.7311C57.2464 21.6532 55.7225 19.1258 55.7225 16.7098C55.7225 15.8921 55.8712 15.0373 56.0942 14.2939C54.6075 15.5205 53.7526 17.9364 53.7526 20.055C53.7526 22.8054 55.0535 24.1063 56.7632 24.1063Z" fill="#161616"/>
<path d="M51.3901 17.0815L51.3529 17.1187C51.6131 16.4125 52.0591 16.1152 52.5051 16.1152C53.137 16.1152 53.7688 16.6727 53.7688 17.3789C53.7688 17.5647 53.7317 17.7134 53.6573 17.8992C52.2078 21.4302 50.052 25.5559 46.5954 27.9718L46.5211 28.7152C46.1122 33.1754 43.845 36.0001 40.983 36.0001C38.8272 36.0001 37.5635 34.5134 37.5635 32.7665C37.5635 29.6072 40.7971 28.455 43.8078 26.5223C43.8821 25.7417 43.9193 24.8497 43.9564 23.8461C42.4697 25.4815 40.8715 26.1506 39.4591 26.1506C36.6343 26.1506 34.3299 23.8461 34.3299 20.3152C34.3299 14.8886 37.898 11.3205 41.875 11.3205H41.9122C44.6255 11.3205 47.5246 12.77 47.5246 15.3718C47.5246 16.2267 47.1529 20.8727 46.8556 24.478C48.8626 22.5824 50.5352 19.4975 51.3901 17.0815ZM39.8679 23.4745C41.2432 23.4745 43.1016 22.6196 44.2538 18.4196C44.4396 17.4904 44.5511 16.6727 44.514 15.7063C44.291 14.7028 43.4361 14.1081 42.2095 14.1081C39.6821 14.1081 37.2662 16.524 37.2662 20.2037C37.2662 22.4338 38.3069 23.4745 39.8679 23.4745ZM41.2803 33.2869H41.3175C42.098 33.2869 42.9529 32.7665 43.5104 29.4214C41.875 30.3877 40.3511 31.3541 40.3511 32.5063C40.3511 32.9895 40.7228 33.2869 41.2803 33.2869Z" fill="#161616"/>
<path d="M34.9823 17.0815L34.9452 17.1187C35.2053 16.4125 35.7257 16.1523 36.1717 16.1523C36.8036 16.1523 37.3611 16.6355 37.3611 17.3417C37.3611 17.4904 37.3611 17.6762 37.2868 17.8992C35.9859 21.2444 33.2354 22.9541 30.5593 23.2143C29.3328 25.2957 27.3257 26.8196 24.4637 26.8196C20.3752 26.8196 18.554 23.586 18.554 20.055C18.554 15.7063 21.3044 10.8744 25.9133 10.8744C26.9168 10.8744 27.7717 11.0975 28.4779 11.3948C30.5593 12.1753 31.8974 14.8886 31.8974 17.7877C31.8974 18.7169 31.823 19.6461 31.6 20.5382C32.9753 20.055 34.2761 18.9399 34.9823 17.0815ZM27.2142 13.9222V13.8851C26.3965 13.8851 25.9133 14.9629 25.9133 16.2638C25.9133 18.1594 26.954 19.9063 28.5894 20.5382C28.8496 19.7205 28.9611 18.7913 28.9611 17.7134C28.9611 15.632 28.3292 13.9222 27.2142 13.9222ZM24.5009 24.1063C25.5416 24.1063 26.5823 23.6603 27.4 22.7311C24.9841 21.6532 23.4602 19.1258 23.4602 16.7098C23.4602 15.8921 23.6089 15.0373 23.8319 14.2939C22.3452 15.5205 21.4903 17.9364 21.4903 20.055C21.4903 22.8054 22.7912 24.1063 24.5009 24.1063Z" fill="#161616"/>
<path d="M20.4429 15.9083C19.9225 15.9083 19.4765 16.1685 19.1791 16.8747C18.2128 19.3278 16.2056 23.4907 14.1613 23.4907C12.8741 23.4907 11.878 23.1996 10.8714 22.9054C9.84348 22.605 8.80467 22.3013 7.43378 22.3013C6.95058 22.3013 6.28154 22.3757 5.64967 22.4872C7.55325 19.8914 8.26439 16.7477 8.95347 10.8054C7.65601 10.7228 6.6006 10.4831 5.83132 10.241C5.00967 17.7775 4.07661 20.6511 0.669037 23.4907C0.22301 23.8624 0 24.3828 0 24.9032C0 25.7209 0.706212 26.4271 1.59827 26.4271C1.89562 26.4271 2.23013 26.3156 2.56465 26.1669C4.46027 25.312 5.6125 25.089 7.02492 25.089C7.92309 25.089 8.99783 25.3459 10.1485 25.6208C11.4739 25.9376 12.9 26.2784 14.2729 26.2784C17.2835 26.2784 19.2535 23.3421 21.4464 17.6552C21.558 17.4694 21.5951 17.2464 21.5951 17.0605C21.5951 16.3543 21.0376 15.9083 20.4429 15.9083Z" fill="#161616"/>
<path fill-rule="evenodd" clip-rule="evenodd" d="M6.02004 8.70287C6.69313 8.93784 7.74395 9.2114 9.10638 9.29233L9.32939 9.29222C13.5295 9.29222 16.28 6.6904 16.28 3.56821C16.28 1.56109 14.7189 0 12.5259 0C9.58957 0 7.54529 2.00712 6.50456 5.98419C5.20365 5.27798 4.3116 4.01424 3.86557 2.41598C3.64255 1.63543 3.15936 1.15223 2.49031 1.15223C1.6726 1.15223 1.15223 1.78411 1.15223 2.63899C1.15223 5.16648 3.12219 7.58245 6.02136 8.69752C6.02092 8.6993 6.02048 8.70109 6.02004 8.70287ZM9.5524 6.57889C10.1099 4.01424 11.002 2.78767 12.1914 2.78767C12.8233 2.78767 13.2321 3.15936 13.2321 3.8284C13.2321 5.05497 11.9312 6.50455 9.5524 6.57889Z" fill="#161616"/>
</svg>
