<svg width="1000" height="1000" viewBox="0 0 1000 1000" fill="none" xmlns="http://www.w3.org/2000/svg">
<rect width="1000" height="1000" fill="#DBDBDB"/>
<path fill-rule="evenodd" clip-rule="evenodd" d="M420 420H580C591.046 420 600 428.954 600 440V560C600 571.046 591.046 580 580 580H420C408.954 580 400 571.046 400 560V440C400 428.954 408.954 420 420 420ZM491.7 532.2L530.6 506.2C532.696 504.834 533.96 502.502 533.96 500C533.96 497.498 532.696 495.166 530.6 493.8L491.7 467.8C489.403 466.248 486.438 466.089 483.988 467.387C481.539 468.685 480.005 471.228 480 474V526C480.005 528.772 481.539 531.315 483.988 532.613C486.438 533.911 489.403 533.752 491.7 532.2Z" fill="black" fill-opacity="0.15"/>
</svg>
